REM DIRINDEX 1\2,1\3,1\4,1\5
REM DIRNAME cjc046,folder01,folder02,folder03,folder04
TITLE ""
FILE "122.mp3" MP3
  TRACK 01 AUDIO
    TITLE "0:"
    INDEX 01 00:00:00
  TRACK 02 AUDIO
    TITLE "2:cjc046_2991"
    INDEX 01 00:00:11
  TRACK 03 AUDIO
    TITLE "0:"
    INDEX 01 00:01:28
  TRACK 04 AUDIO
    TITLE "3:cjc046_2992"
    INDEX 01 00:01:52
  TRACK 05 AUDIO
    TITLE "0:"
    INDEX 01 00:02:57
  TRACK 06 AUDIO
    TITLE "4:cjc046_2993"
    INDEX 01 00:03:00
  TRACK 07 AUDIO
    TITLE "0:"
    INDEX 01 00:04:15
  TRACK 08 AUDIO
    TITLE "2:cjc046_2994"
    INDEX 01 00:05:28
  TRACK 09 AUDIO
    TITLE "0:"
    INDEX 01 00:06:39
  TRACK 10 AUDIO
    TITLE "3:cjc046_2995"
    INDEX 01 00:06:59
  TRACK 11 AUDIO
    TITLE "0:"
    INDEX 01 00:08:05
  TRACK 12 AUDIO
    TITLE "4:cjc046_2996"
    INDEX 01 00:08:19
  TRACK 13 AUDIO
    TITLE "0:"
    INDEX 01 00:09:28
  TRACK 14 AUDIO
    TITLE "2:cjc046_2997"
    INDEX 01 00:10:37
  TRACK 15 AUDIO
    TITLE "0:"
    INDEX 01 00:11:39
  TRACK 16 AUDIO
    TITLE "3:cjc046_2998"
    INDEX 01 00:11:58
  TRACK 17 AUDIO
    TITLE "0:"
    INDEX 01 00:12:36
  TRACK 18 AUDIO
    TITLE "4:cjc046_2999"
    INDEX 01 00:12:58
  TRACK 19 AUDIO
    TITLE "0:"
    INDEX 01 00:13:57
  TRACK 20 AUDIO
    TITLE "2:cjc046_3000"
    INDEX 01 00:14:70
  TRACK 21 AUDIO
    TITLE "0:"
    INDEX 01 00:16:00
  TRACK 22 AUDIO
    TITLE "3:cjc046_3001"
    INDEX 01 00:16:22
  TRACK 23 AUDIO
    TITLE "0:"
    INDEX 01 00:17:14
  TRACK 24 AUDIO
    TITLE "4:cjc046_3002"
    INDEX 01 00:17:35
  TRACK 25 AUDIO
    TITLE "0:"
    INDEX 01 00:18:39
  TRACK 26 AUDIO
    TITLE "2:cjc046_3003"
    INDEX 01 00:19:50
  TRACK 27 AUDIO
    TITLE "0:"
    INDEX 01 00:20:53
  TRACK 28 AUDIO
    TITLE "3:cjc046_3004"
    INDEX 01 00:21:00
  TRACK 29 AUDIO
    TITLE "0:"
    INDEX 01 00:22:01
  TRACK 30 AUDIO
    TITLE "4:cjc046_3005"
    INDEX 01 00:22:15
  TRACK 31 AUDIO
    TITLE "0:"
    INDEX 01 00:23:18
  TRACK 32 AUDIO
    TITLE "2:cjc046_3006"
    INDEX 01 00:24:29
  TRACK 33 AUDIO
    TITLE "0:"
    INDEX 01 00:25:37
  TRACK 34 AUDIO
    TITLE "3:cjc046_3007"
    INDEX 01 00:25:60
  TRACK 35 AUDIO
    TITLE "0:"
    INDEX 01 00:27:32
  TRACK 36 AUDIO
    TITLE "4:cjc046_3008"
    INDEX 01 00:27:43
  TRACK 37 AUDIO
    TITLE "0:"
    INDEX 01 00:28:53
  TRACK 38 AUDIO
    TITLE "2:cjc046_3009"
    INDEX 01 00:29:62
  TRACK 39 AUDIO
    TITLE "0:"
    INDEX 01 00:30:63
  TRACK 40 AUDIO
    TITLE "3:cjc046_3010"
    INDEX 01 00:31:08
  TRACK 41 AUDIO
    TITLE "0:"
    INDEX 01 00:32:09
  TRACK 42 AUDIO
    TITLE "4:cjc046_3011"
    INDEX 01 00:32:27
  TRACK 43 AUDIO
    TITLE "0:"
    INDEX 01 00:33:28
  TRACK 44 AUDIO
    TITLE "2:cjc046_3012"
    INDEX 01 00:34:36
  TRACK 45 AUDIO
    TITLE "0:"
    INDEX 01 00:35:35
  TRACK 46 AUDIO
    TITLE "3:cjc046_3013"
    INDEX 01 00:35:49
  TRACK 47 AUDIO
    TITLE "0:"
    INDEX 01 00:36:60
  TRACK 48 AUDIO
    TITLE "4:cjc046_3014"
    INDEX 01 00:37:05
  TRACK 49 AUDIO
    TITLE "0:"
    INDEX 01 00:38:06
  TRACK 50 AUDIO
    TITLE "2:cjc046_3015"
    INDEX 01 00:39:15
  TRACK 51 AUDIO
    TITLE "0:"
    INDEX 01 00:40:26
  TRACK 52 AUDIO
    TITLE "3:cjc046_3016"
    INDEX 01 00:40:44
  TRACK 53 AUDIO
    TITLE "0:"
    INDEX 01 00:41:49
  TRACK 54 AUDIO
    TITLE "4:cjc046_3017"
    INDEX 01 00:41:71
  TRACK 55 AUDIO
    TITLE "0:"
    INDEX 01 00:43:05
  TRACK 56 AUDIO
    TITLE "2:cjc046_3018"
    INDEX 01 00:44:16
  TRACK 57 AUDIO
    TITLE "0:"
    INDEX 01 00:45:30
  TRACK 58 AUDIO
    TITLE "3:cjc046_3019"
    INDEX 01 00:45:49
  TRACK 59 AUDIO
    TITLE "0:"
    INDEX 01 00:47:34
  TRACK 60 AUDIO
    TITLE "4:cjc046_3020"
    INDEX 01 00:47:40
  TRACK 61 AUDIO
    TITLE "0:"
    INDEX 01 00:48:55
  TRACK 62 AUDIO
    TITLE "2:cjc046_3021"
    INDEX 01 00:49:63
  TRACK 63 AUDIO
    TITLE "0:"
    INDEX 01 00:50:60
  TRACK 64 AUDIO
    TITLE "3:cjc046_3022"
    INDEX 01 00:51:11
  TRACK 65 AUDIO
    TITLE "0:"
    INDEX 01 00:52:14
  TRACK 66 AUDIO
    TITLE "4:cjc046_3023"
    INDEX 01 00:52:32
  TRACK 67 AUDIO
    TITLE "0:"
    INDEX 01 00:53:29
  TRACK 68 AUDIO
    TITLE "2:cjc046_3024"
    INDEX 01 00:54:44
  TRACK 69 AUDIO
    TITLE "0:"
    INDEX 01 00:55:46
  TRACK 70 AUDIO
    TITLE "3:cjc046_3025"
    INDEX 01 00:55:65
  TRACK 71 AUDIO
    TITLE "0:"
    INDEX 01 00:56:71
  TRACK 72 AUDIO
    TITLE "4:cjc046_3026"
    INDEX 01 00:57:15
  TRACK 73 AUDIO
    TITLE "0:"
    INDEX 01 00:58:18
  TRACK 74 AUDIO
    TITLE "2:cjc046_3027"
    INDEX 01 00:59:26
  TRACK 75 AUDIO
    TITLE "0:"
    INDEX 01 01:00:29
  TRACK 76 AUDIO
    TITLE "3:cjc046_3028"
    INDEX 01 01:00:49
  TRACK 77 AUDIO
    TITLE "0:"
    INDEX 01 01:01:42
  TRACK 78 AUDIO
    TITLE "4:cjc046_3029"
    INDEX 01 01:01:58
  TRACK 79 AUDIO
    TITLE "0:"
    INDEX 01 01:02:63
  TRACK 80 AUDIO
    TITLE "2:cjc046_3030"
    INDEX 01 01:03:73
  TRACK 81 AUDIO
    TITLE "0:"
    INDEX 01 01:04:72
  TRACK 82 AUDIO
    TITLE "3:cjc046_3031"
    INDEX 01 01:05:19
  TRACK 83 AUDIO
    TITLE "0:"
    INDEX 01 01:06:16
  TRACK 84 AUDIO
    TITLE "4:cjc046_3032"
    INDEX 01 01:06:32
  TRACK 85 AUDIO
    TITLE "0:"
    INDEX 01 01:07:33
